<?xml version="1.0" encoding="utf-8"?>
<!DOCTYPE svg PUBLIC "-//W3C//DTD SVG 20010904//EN" "http://www.w3.org/TR/2001/REC-SVG-20010904/DTD/svg10.dtd">
<svg xmlns="http://www.w3.org/2000/svg" xml:space="preserve" xmlns:xlink="http://www.w3.org/1999/xlink" width="400" height="400" viewBox="0 0 400 400">
<defs>
<mask id="qrmask"><g fill="#ffffff">
<g transform="translate(192,32) scale(2.6666666666667)"><rect width="6" height="6"/></g>
<g transform="translate(208,32) scale(2.6666666666667)"><rect width="6" height="6"/></g>
<g transform="translate(224,32) scale(2.6666666666667)"><rect width="6" height="6"/></g>
<g transform="translate(160,48) scale(2.6666666666667)"><rect width="6" height="6"/></g>
<g transform="translate(176,48) scale(2.6666666666667)"><rect width="6" height="6"/></g>
<g transform="translate(192,48) scale(2.6666666666667)"><rect width="6" height="6"/></g>
<g transform="translate(224,48) scale(2.6666666666667)"><rect width="6" height="6"/></g>
<g transform="translate(192,64) scale(2.6666666666667)"><rect width="6" height="6"/></g>
<g transform="translate(208,64) scale(2.6666666666667)"><rect width="6" height="6"/></g>
<g transform="translate(224,64) scale(2.6666666666667)"><rect width="6" height="6"/></g>
<g transform="translate(160,80) scale(2.6666666666667)"><rect width="6" height="6"/></g>
<g transform="translate(176,80) scale(2.6666666666667)"><rect width="6" height="6"/></g>
<g transform="translate(224,80) scale(2.6666666666667)"><rect width="6" height="6"/></g>
<g transform="translate(176,96) scale(2.6666666666667)"><rect width="6" height="6"/></g>
<g transform="translate(224,96) scale(2.6666666666667)"><rect width="6" height="6"/></g>
<g transform="translate(160,112) scale(2.6666666666667)"><rect width="6" height="6"/></g>
<g transform="translate(208,112) scale(2.6666666666667)"><rect width="6" height="6"/></g>
<g transform="translate(160,128) scale(2.6666666666667)"><rect width="6" height="6"/></g>
<g transform="translate(192,128) scale(2.6666666666667)"><rect width="6" height="6"/></g>
<g transform="translate(224,128) scale(2.6666666666667)"><rect width="6" height="6"/></g>
<g transform="translate(176,144) scale(2.6666666666667)"><rect width="6" height="6"/></g>
<g transform="translate(32,160) scale(2.6666666666667)"><rect width="6" height="6"/></g>
<g transform="translate(48,160) scale(2.6666666666667)"><rect width="6" height="6"/></g>
<g transform="translate(64,160) scale(2.6666666666667)"><rect width="6" height="6"/></g>
<g transform="translate(80,160) scale(2.6666666666667)"><rect width="6" height="6"/></g>
<g transform="translate(96,160) scale(2.6666666666667)"><rect width="6" height="6"/></g>
<g transform="translate(128,160) scale(2.6666666666667)"><rect width="6" height="6"/></g>
<g transform="translate(144,160) scale(2.6666666666667)"><rect width="6" height="6"/></g>
<g transform="translate(160,160) scale(2.6666666666667)"><rect width="6" height="6"/></g>
<g transform="translate(208,160) scale(2.6666666666667)"><rect width="6" height="6"/></g>
<g transform="translate(240,160) scale(2.6666666666667)"><rect width="6" height="6"/></g>
<g transform="translate(272,160) scale(2.6666666666667)"><rect width="6" height="6"/></g>
<g transform="translate(304,160) scale(2.6666666666667)"><rect width="6" height="6"/></g>
<g transform="translate(336,160) scale(2.6666666666667)"><rect width="6" height="6"/></g>
<g transform="translate(32,176) scale(2.6666666666667)"><rect width="6" height="6"/></g>
<g transform="translate(48,176) scale(2.6666666666667)"><rect width="6" height="6"/></g>
<g transform="translate(80,176) scale(2.6666666666667)"><rect width="6" height="6"/></g>
<g transform="translate(144,176) scale(2.6666666666667)"><rect width="6" height="6"/></g>
<g transform="translate(160,176) scale(2.6666666666667)"><rect width="6" height="6"/></g>
<g transform="translate(208,176) scale(2.6666666666667)"><rect width="6" height="6"/></g>
<g transform="translate(224,176) scale(2.6666666666667)"><rect width="6" height="6"/></g>
<g transform="translate(240,176) scale(2.6666666666667)"><rect width="6" height="6"/></g>
<g transform="translate(288,176) scale(2.6666666666667)"><rect width="6" height="6"/></g>
<g transform="translate(352,176) scale(2.6666666666667)"><rect width="6" height="6"/></g>
<g transform="translate(80,192) scale(2.6666666666667)"><rect width="6" height="6"/></g>
<g transform="translate(96,192) scale(2.6666666666667)"><rect width="6" height="6"/></g>
<g transform="translate(112,192) scale(2.6666666666667)"><rect width="6" height="6"/></g>
<g transform="translate(128,192) scale(2.6666666666667)"><rect width="6" height="6"/></g>
<g transform="translate(224,192) scale(2.6666666666667)"><rect width="6" height="6"/></g>
<g transform="translate(256,192) scale(2.6666666666667)"><rect width="6" height="6"/></g>
<g transform="translate(304,192) scale(2.6666666666667)"><rect width="6" height="6"/></g>
<g transform="translate(320,192) scale(2.6666666666667)"><rect width="6" height="6"/></g>
<g transform="translate(336,192) scale(2.6666666666667)"><rect width="6" height="6"/></g>
<g transform="translate(112,208) scale(2.6666666666667)"><rect width="6" height="6"/></g>
<g transform="translate(144,208) scale(2.6666666666667)"><rect width="6" height="6"/></g>
<g transform="translate(192,208) scale(2.6666666666667)"><rect width="6" height="6"/></g>
<g transform="translate(208,208) scale(2.6666666666667)"><rect width="6" height="6"/></g>
<g transform="translate(224,208) scale(2.6666666666667)"><rect width="6" height="6"/></g>
<g transform="translate(240,208) scale(2.6666666666667)"><rect width="6" height="6"/></g>
<g transform="translate(304,208) scale(2.6666666666667)"><rect width="6" height="6"/></g>
<g transform="translate(320,208) scale(2.6666666666667)"><rect width="6" height="6"/></g>
<g transform="translate(64,224) scale(2.6666666666667)"><rect width="6" height="6"/></g>
<g transform="translate(80,224) scale(2.6666666666667)"><rect width="6" height="6"/></g>
<g transform="translate(128,224) scale(2.6666666666667)"><rect width="6" height="6"/></g>
<g transform="translate(160,224) scale(2.6666666666667)"><rect width="6" height="6"/></g>
<g transform="translate(176,224) scale(2.6666666666667)"><rect width="6" height="6"/></g>
<g transform="translate(192,224) scale(2.6666666666667)"><rect width="6" height="6"/></g>
<g transform="translate(224,224) scale(2.6666666666667)"><rect width="6" height="6"/></g>
<g transform="translate(256,224) scale(2.6666666666667)"><rect width="6" height="6"/></g>
<g transform="translate(272,224) scale(2.6666666666667)"><rect width="6" height="6"/></g>
<g transform="translate(288,224) scale(2.6666666666667)"><rect width="6" height="6"/></g>
<g transform="translate(336,224) scale(2.6666666666667)"><rect width="6" height="6"/></g>
<g transform="translate(160,240) scale(2.6666666666667)"><rect width="6" height="6"/></g>
<g transform="translate(176,240) scale(2.6666666666667)"><rect width="6" height="6"/></g>
<g transform="translate(192,240) scale(2.6666666666667)"><rect width="6" height="6"/></g>
<g transform="translate(224,240) scale(2.6666666666667)"><rect width="6" height="6"/></g>
<g transform="translate(240,240) scale(2.6666666666667)"><rect width="6" height="6"/></g>
<g transform="translate(256,240) scale(2.6666666666667)"><rect width="6" height="6"/></g>
<g transform="translate(272,240) scale(2.6666666666667)"><rect width="6" height="6"/></g>
<g transform="translate(288,240) scale(2.6666666666667)"><rect width="6" height="6"/></g>
<g transform="translate(304,240) scale(2.6666666666667)"><rect width="6" height="6"/></g>
<g transform="translate(320,240) scale(2.6666666666667)"><rect width="6" height="6"/></g>
<g transform="translate(352,240) scale(2.6666666666667)"><rect width="6" height="6"/></g>
<g transform="translate(160,256) scale(2.6666666666667)"><rect width="6" height="6"/></g>
<g transform="translate(208,256) scale(2.6666666666667)"><rect width="6" height="6"/></g>
<g transform="translate(240,256) scale(2.6666666666667)"><rect width="6" height="6"/></g>
<g transform="translate(256,256) scale(2.6666666666667)"><rect width="6" height="6"/></g>
<g transform="translate(304,256) scale(2.6666666666667)"><rect width="6" height="6"/></g>
<g transform="translate(336,256) scale(2.6666666666667)"><rect width="6" height="6"/></g>
<g transform="translate(272,272) scale(2.6666666666667)"><rect width="6" height="6"/></g>
<g transform="translate(304,272) scale(2.6666666666667)"><rect width="6" height="6"/></g>
<g transform="translate(320,272) scale(2.6666666666667)"><rect width="6" height="6"/></g>
<g transform="translate(336,272) scale(2.6666666666667)"><rect width="6" height="6"/></g>
<g transform="translate(160,288) scale(2.6666666666667)"><rect width="6" height="6"/></g>
<g transform="translate(208,288) scale(2.6666666666667)"><rect width="6" height="6"/></g>
<g transform="translate(352,288) scale(2.6666666666667)"><rect width="6" height="6"/></g>
<g transform="translate(160,304) scale(2.6666666666667)"><rect width="6" height="6"/></g>
<g transform="translate(192,304) scale(2.6666666666667)"><rect width="6" height="6"/></g>
<g transform="translate(208,304) scale(2.6666666666667)"><rect width="6" height="6"/></g>
<g transform="translate(224,304) scale(2.6666666666667)"><rect width="6" height="6"/></g>
<g transform="translate(240,304) scale(2.6666666666667)"><rect width="6" height="6"/></g>
<g transform="translate(256,304) scale(2.6666666666667)"><rect width="6" height="6"/></g>
<g transform="translate(288,304) scale(2.6666666666667)"><rect width="6" height="6"/></g>
<g transform="translate(304,304) scale(2.6666666666667)"><rect width="6" height="6"/></g>
<g transform="translate(320,304) scale(2.6666666666667)"><rect width="6" height="6"/></g>
<g transform="translate(160,320) scale(2.6666666666667)"><rect width="6" height="6"/></g>
<g transform="translate(176,320) scale(2.6666666666667)"><rect width="6" height="6"/></g>
<g transform="translate(224,320) scale(2.6666666666667)"><rect width="6" height="6"/></g>
<g transform="translate(256,320) scale(2.6666666666667)"><rect width="6" height="6"/></g>
<g transform="translate(304,320) scale(2.6666666666667)"><rect width="6" height="6"/></g>
<g transform="translate(320,320) scale(2.6666666666667)"><rect width="6" height="6"/></g>
<g transform="translate(160,336) scale(2.6666666666667)"><rect width="6" height="6"/></g>
<g transform="translate(176,336) scale(2.6666666666667)"><rect width="6" height="6"/></g>
<g transform="translate(208,336) scale(2.6666666666667)"><rect width="6" height="6"/></g>
<g transform="translate(224,336) scale(2.6666666666667)"><rect width="6" height="6"/></g>
<g transform="translate(240,336) scale(2.6666666666667)"><rect width="6" height="6"/></g>
<g transform="translate(256,336) scale(2.6666666666667)"><rect width="6" height="6"/></g>
<g transform="translate(288,336) scale(2.6666666666667)"><rect width="6" height="6"/></g>
<g transform="translate(304,336) scale(2.6666666666667)"><rect width="6" height="6"/></g>
<g transform="translate(320,336) scale(2.6666666666667)"><rect width="6" height="6"/></g>
<g transform="translate(160,352) scale(2.6666666666667)"><rect width="6" height="6"/></g>
<g transform="translate(176,352) scale(2.6666666666667)"><rect width="6" height="6"/></g>
<g transform="translate(192,352) scale(2.6666666666667)"><rect width="6" height="6"/></g>
<g transform="translate(224,352) scale(2.6666666666667)"><rect width="6" height="6"/></g>
<g transform="translate(272,352) scale(2.6666666666667)"><rect width="6" height="6"/></g>
<g transform="translate(304,352) scale(2.6666666666667)"><rect width="6" height="6"/></g>
<g transform="translate(336,352) scale(2.6666666666667)"><rect width="6" height="6"/></g>
<g transform="translate(32,32)"><g transform="scale(8)"><path d="M0,0v14h14V0H0z M12,12H2V2h10V12z"/></g></g>
<g transform="translate(256,32)"><g transform="scale(8)"><path d="M0,0v14h14V0H0z M12,12H2V2h10V12z"/></g></g>
<g transform="translate(32,256)"><g transform="scale(8)"><path d="M0,0v14h14V0H0z M12,12H2V2h10V12z"/></g></g>
<g transform="translate(64,64)"><g transform="scale(8)"><rect width="6" height="6"/></g></g>
<g transform="translate(288,64)"><g transform="scale(8)"><rect width="6" height="6"/></g></g>
<g transform="translate(64,288)"><g transform="scale(8)"><rect width="6" height="6"/></g></g>
</g></mask></defs>
<rect width="400" height="400" fill="#ffffff" x="0" y="0" />
<rect x="0" y="0" width="400" height="400" mask="url(#qrmask)" fill="#000000" />
</svg>