<?xml version="1.0" encoding="UTF-8" standalone="no"?>
<svg
   xmlns:dc="http://purl.org/dc/elements/1.1/"
   xmlns:cc="http://creativecommons.org/ns#"
   xmlns:rdf="http://www.w3.org/1999/02/22-rdf-syntax-ns#"
   xmlns:svg="http://www.w3.org/2000/svg"
   xmlns="http://www.w3.org/2000/svg"
   xmlns:sodipodi="http://sodipodi.sourceforge.net/DTD/sodipodi-0.dtd"
   xmlns:inkscape="http://www.inkscape.org/namespaces/inkscape"
   xml:space="preserve"
   width="210mm"
   height="297mm"
   viewBox="0 0 793.7008 1122.5197"
   version="1.1"
   id="svg571"
   sodipodi:docname="qr-dig-@estomago.svg"
   inkscape:export-filename="/mnt/storage/Universidad/MEED/07 - Recursos Digitales II/qr-dig-@estomago.png"
   inkscape:export-xdpi="150"
   inkscape:export-ydpi="150"
   inkscape:version="1.0.2 (e86c870879, 2021-01-15)"><metadata
   id="metadata575"><rdf:RDF><cc:Work
       rdf:about=""><dc:format>image/svg+xml</dc:format><dc:type
         rdf:resource="http://purl.org/dc/dcmitype/StillImage" /><dc:title></dc:title></cc:Work></rdf:RDF></metadata><sodipodi:namedview
   pagecolor="#ffffff"
   bordercolor="#666666"
   borderopacity="1"
   objecttolerance="10"
   gridtolerance="10"
   guidetolerance="10"
   inkscape:pageopacity="0"
   inkscape:pageshadow="2"
   inkscape:window-width="1366"
   inkscape:window-height="745"
   id="namedview573"
   showgrid="false"
   units="mm"
   inkscape:zoom="0.72625"
   inkscape:cx="-20.082011"
   inkscape:cy="222.72491"
   inkscape:window-x="0"
   inkscape:window-y="0"
   inkscape:window-maximized="0"
   inkscape:current-layer="svg571" />
<defs
   id="defs565">
<mask
   id="qrmask"><g
     fill="#ffffff"
     id="g562">
<g
   transform="matrix(2.6666667,0,0,2.6666667,192,32)"
   id="g4"><rect
     width="6"
     height="6"
     id="rect2"
     x="0"
     y="0" /></g>
<g
   transform="matrix(2.6666667,0,0,2.6666667,176,48)"
   id="g8"><rect
     width="6"
     height="6"
     id="rect6"
     x="0"
     y="0" /></g>
<g
   transform="matrix(2.6666667,0,0,2.6666667,192,48)"
   id="g12"><rect
     width="6"
     height="6"
     id="rect10"
     x="0"
     y="0" /></g>
<g
   transform="matrix(2.6666667,0,0,2.6666667,208,48)"
   id="g16"><rect
     width="6"
     height="6"
     id="rect14"
     x="0"
     y="0" /></g>
<g
   transform="matrix(2.6666667,0,0,2.6666667,224,48)"
   id="g20"><rect
     width="6"
     height="6"
     id="rect18"
     x="0"
     y="0" /></g>
<g
   transform="matrix(2.6666667,0,0,2.6666667,160,64)"
   id="g24"><rect
     width="6"
     height="6"
     id="rect22"
     x="0"
     y="0" /></g>
<g
   transform="matrix(2.6666667,0,0,2.6666667,176,64)"
   id="g28"><rect
     width="6"
     height="6"
     id="rect26"
     x="0"
     y="0" /></g>
<g
   transform="matrix(2.6666667,0,0,2.6666667,192,64)"
   id="g32"><rect
     width="6"
     height="6"
     id="rect30"
     x="0"
     y="0" /></g>
<g
   transform="matrix(2.6666667,0,0,2.6666667,160,80)"
   id="g36"><rect
     width="6"
     height="6"
     id="rect34"
     x="0"
     y="0" /></g>
<g
   transform="matrix(2.6666667,0,0,2.6666667,176,80)"
   id="g40"><rect
     width="6"
     height="6"
     id="rect38"
     x="0"
     y="0" /></g>
<g
   transform="matrix(2.6666667,0,0,2.6666667,160,96)"
   id="g44"><rect
     width="6"
     height="6"
     id="rect42"
     x="0"
     y="0" /></g>
<g
   transform="matrix(2.6666667,0,0,2.6666667,224,96)"
   id="g48"><rect
     width="6"
     height="6"
     id="rect46"
     x="0"
     y="0" /></g>
<g
   transform="matrix(2.6666667,0,0,2.6666667,160,112)"
   id="g52"><rect
     width="6"
     height="6"
     id="rect50"
     x="0"
     y="0" /></g>
<g
   transform="matrix(2.6666667,0,0,2.6666667,192,112)"
   id="g56"><rect
     width="6"
     height="6"
     id="rect54"
     x="0"
     y="0" /></g>
<g
   transform="matrix(2.6666667,0,0,2.6666667,208,112)"
   id="g60"><rect
     width="6"
     height="6"
     id="rect58"
     x="0"
     y="0" /></g>
<g
   transform="matrix(2.6666667,0,0,2.6666667,160,128)"
   id="g64"><rect
     width="6"
     height="6"
     id="rect62"
     x="0"
     y="0" /></g>
<g
   transform="matrix(2.6666667,0,0,2.6666667,192,128)"
   id="g68"><rect
     width="6"
     height="6"
     id="rect66"
     x="0"
     y="0" /></g>
<g
   transform="matrix(2.6666667,0,0,2.6666667,224,128)"
   id="g72"><rect
     width="6"
     height="6"
     id="rect70"
     x="0"
     y="0" /></g>
<g
   transform="matrix(2.6666667,0,0,2.6666667,160,144)"
   id="g76"><rect
     width="6"
     height="6"
     id="rect74"
     x="0"
     y="0" /></g>
<g
   transform="matrix(2.6666667,0,0,2.6666667,192,144)"
   id="g80"><rect
     width="6"
     height="6"
     id="rect78"
     x="0"
     y="0" /></g>
<g
   transform="matrix(2.6666667,0,0,2.6666667,32,160)"
   id="g84"><rect
     width="6"
     height="6"
     id="rect82"
     x="0"
     y="0" /></g>
<g
   transform="matrix(2.6666667,0,0,2.6666667,64,160)"
   id="g88"><rect
     width="6"
     height="6"
     id="rect86"
     x="0"
     y="0" /></g>
<g
   transform="matrix(2.6666667,0,0,2.6666667,80,160)"
   id="g92"><rect
     width="6"
     height="6"
     id="rect90"
     x="0"
     y="0" /></g>
<g
   transform="matrix(2.6666667,0,0,2.6666667,96,160)"
   id="g96"><rect
     width="6"
     height="6"
     id="rect94"
     x="0"
     y="0" /></g>
<g
   transform="matrix(2.6666667,0,0,2.6666667,112,160)"
   id="g100"><rect
     width="6"
     height="6"
     id="rect98"
     x="0"
     y="0" /></g>
<g
   transform="matrix(2.6666667,0,0,2.6666667,128,160)"
   id="g104"><rect
     width="6"
     height="6"
     id="rect102"
     x="0"
     y="0" /></g>
<g
   transform="matrix(2.6666667,0,0,2.6666667,176,160)"
   id="g108"><rect
     width="6"
     height="6"
     id="rect106"
     x="0"
     y="0" /></g>
<g
   transform="matrix(2.6666667,0,0,2.6666667,192,160)"
   id="g112"><rect
     width="6"
     height="6"
     id="rect110"
     x="0"
     y="0" /></g>
<g
   transform="matrix(2.6666667,0,0,2.6666667,208,160)"
   id="g116"><rect
     width="6"
     height="6"
     id="rect114"
     x="0"
     y="0" /></g>
<g
   transform="matrix(2.6666667,0,0,2.6666667,256,160)"
   id="g120"><rect
     width="6"
     height="6"
     id="rect118"
     x="0"
     y="0" /></g>
<g
   transform="matrix(2.6666667,0,0,2.6666667,272,160)"
   id="g124"><rect
     width="6"
     height="6"
     id="rect122"
     x="0"
     y="0" /></g>
<g
   transform="matrix(2.6666667,0,0,2.6666667,288,160)"
   id="g128"><rect
     width="6"
     height="6"
     id="rect126"
     x="0"
     y="0" /></g>
<g
   transform="matrix(2.6666667,0,0,2.6666667,304,160)"
   id="g132"><rect
     width="6"
     height="6"
     id="rect130"
     x="0"
     y="0" /></g>
<g
   transform="matrix(2.6666667,0,0,2.6666667,320,160)"
   id="g136"><rect
     width="6"
     height="6"
     id="rect134"
     x="0"
     y="0" /></g>
<g
   transform="matrix(2.6666667,0,0,2.6666667,48,176)"
   id="g140"><rect
     width="6"
     height="6"
     id="rect138"
     x="0"
     y="0" /></g>
<g
   transform="matrix(2.6666667,0,0,2.6666667,64,176)"
   id="g144"><rect
     width="6"
     height="6"
     id="rect142"
     x="0"
     y="0" /></g>
<g
   transform="matrix(2.6666667,0,0,2.6666667,80,176)"
   id="g148"><rect
     width="6"
     height="6"
     id="rect146"
     x="0"
     y="0" /></g>
<g
   transform="matrix(2.6666667,0,0,2.6666667,112,176)"
   id="g152"><rect
     width="6"
     height="6"
     id="rect150"
     x="0"
     y="0" /></g>
<g
   transform="matrix(2.6666667,0,0,2.6666667,176,176)"
   id="g156"><rect
     width="6"
     height="6"
     id="rect154"
     x="0"
     y="0" /></g>
<g
   transform="matrix(2.6666667,0,0,2.6666667,208,176)"
   id="g160"><rect
     width="6"
     height="6"
     id="rect158"
     x="0"
     y="0" /></g>
<g
   transform="matrix(2.6666667,0,0,2.6666667,224,176)"
   id="g164"><rect
     width="6"
     height="6"
     id="rect162"
     x="0"
     y="0" /></g>
<g
   transform="matrix(2.6666667,0,0,2.6666667,240,176)"
   id="g168"><rect
     width="6"
     height="6"
     id="rect166"
     x="0"
     y="0" /></g>
<g
   transform="matrix(2.6666667,0,0,2.6666667,272,176)"
   id="g172"><rect
     width="6"
     height="6"
     id="rect170"
     x="0"
     y="0" /></g>
<g
   transform="matrix(2.6666667,0,0,2.6666667,288,176)"
   id="g176"><rect
     width="6"
     height="6"
     id="rect174"
     x="0"
     y="0" /></g>
<g
   transform="matrix(2.6666667,0,0,2.6666667,304,176)"
   id="g180"><rect
     width="6"
     height="6"
     id="rect178"
     x="0"
     y="0" /></g>
<g
   transform="matrix(2.6666667,0,0,2.6666667,320,176)"
   id="g184"><rect
     width="6"
     height="6"
     id="rect182"
     x="0"
     y="0" /></g>
<g
   transform="matrix(2.6666667,0,0,2.6666667,352,176)"
   id="g188"><rect
     width="6"
     height="6"
     id="rect186"
     x="0"
     y="0" /></g>
<g
   transform="matrix(2.6666667,0,0,2.6666667,64,192)"
   id="g192"><rect
     width="6"
     height="6"
     id="rect190"
     x="0"
     y="0" /></g>
<g
   transform="matrix(2.6666667,0,0,2.6666667,80,192)"
   id="g196"><rect
     width="6"
     height="6"
     id="rect194"
     x="0"
     y="0" /></g>
<g
   transform="matrix(2.6666667,0,0,2.6666667,96,192)"
   id="g200"><rect
     width="6"
     height="6"
     id="rect198"
     x="0"
     y="0" /></g>
<g
   transform="matrix(2.6666667,0,0,2.6666667,112,192)"
   id="g204"><rect
     width="6"
     height="6"
     id="rect202"
     x="0"
     y="0" /></g>
<g
   transform="matrix(2.6666667,0,0,2.6666667,128,192)"
   id="g208"><rect
     width="6"
     height="6"
     id="rect206"
     x="0"
     y="0" /></g>
<g
   transform="matrix(2.6666667,0,0,2.6666667,160,192)"
   id="g212"><rect
     width="6"
     height="6"
     id="rect210"
     x="0"
     y="0" /></g>
<g
   transform="matrix(2.6666667,0,0,2.6666667,176,192)"
   id="g216"><rect
     width="6"
     height="6"
     id="rect214"
     x="0"
     y="0" /></g>
<g
   transform="matrix(2.6666667,0,0,2.6666667,192,192)"
   id="g220"><rect
     width="6"
     height="6"
     id="rect218"
     x="0"
     y="0" /></g>
<g
   transform="matrix(2.6666667,0,0,2.6666667,224,192)"
   id="g224"><rect
     width="6"
     height="6"
     id="rect222"
     x="0"
     y="0" /></g>
<g
   transform="matrix(2.6666667,0,0,2.6666667,240,192)"
   id="g228"><rect
     width="6"
     height="6"
     id="rect226"
     x="0"
     y="0" /></g>
<g
   transform="matrix(2.6666667,0,0,2.6666667,256,192)"
   id="g232"><rect
     width="6"
     height="6"
     id="rect230"
     x="0"
     y="0" /></g>
<g
   transform="matrix(2.6666667,0,0,2.6666667,304,192)"
   id="g236"><rect
     width="6"
     height="6"
     id="rect234"
     x="0"
     y="0" /></g>
<g
   transform="matrix(2.6666667,0,0,2.6666667,320,192)"
   id="g240"><rect
     width="6"
     height="6"
     id="rect238"
     x="0"
     y="0" /></g>
<g
   transform="matrix(2.6666667,0,0,2.6666667,336,192)"
   id="g244"><rect
     width="6"
     height="6"
     id="rect242"
     x="0"
     y="0" /></g>
<g
   transform="matrix(2.6666667,0,0,2.6666667,32,208)"
   id="g248"><rect
     width="6"
     height="6"
     id="rect246"
     x="0"
     y="0" /></g>
<g
   transform="matrix(2.6666667,0,0,2.6666667,64,208)"
   id="g252"><rect
     width="6"
     height="6"
     id="rect250"
     x="0"
     y="0" /></g>
<g
   transform="matrix(2.6666667,0,0,2.6666667,96,208)"
   id="g256"><rect
     width="6"
     height="6"
     id="rect254"
     x="0"
     y="0" /></g>
<g
   transform="matrix(2.6666667,0,0,2.6666667,112,208)"
   id="g260"><rect
     width="6"
     height="6"
     id="rect258"
     x="0"
     y="0" /></g>
<g
   transform="matrix(2.6666667,0,0,2.6666667,144,208)"
   id="g264"><rect
     width="6"
     height="6"
     id="rect262"
     x="0"
     y="0" /></g>
<g
   transform="matrix(2.6666667,0,0,2.6666667,208,208)"
   id="g268"><rect
     width="6"
     height="6"
     id="rect266"
     x="0"
     y="0" /></g>
<g
   transform="matrix(2.6666667,0,0,2.6666667,224,208)"
   id="g272"><rect
     width="6"
     height="6"
     id="rect270"
     x="0"
     y="0" /></g>
<g
   transform="matrix(2.6666667,0,0,2.6666667,240,208)"
   id="g276"><rect
     width="6"
     height="6"
     id="rect274"
     x="0"
     y="0" /></g>
<g
   transform="matrix(2.6666667,0,0,2.6666667,304,208)"
   id="g280"><rect
     width="6"
     height="6"
     id="rect278"
     x="0"
     y="0" /></g>
<g
   transform="matrix(2.6666667,0,0,2.6666667,320,208)"
   id="g284"><rect
     width="6"
     height="6"
     id="rect282"
     x="0"
     y="0" /></g>
<g
   transform="matrix(2.6666667,0,0,2.6666667,128,224)"
   id="g288"><rect
     width="6"
     height="6"
     id="rect286"
     x="0"
     y="0" /></g>
<g
   transform="matrix(2.6666667,0,0,2.6666667,144,224)"
   id="g292"><rect
     width="6"
     height="6"
     id="rect290"
     x="0"
     y="0" /></g>
<g
   transform="matrix(2.6666667,0,0,2.6666667,176,224)"
   id="g296"><rect
     width="6"
     height="6"
     id="rect294"
     x="0"
     y="0" /></g>
<g
   transform="matrix(2.6666667,0,0,2.6666667,224,224)"
   id="g300"><rect
     width="6"
     height="6"
     id="rect298"
     x="0"
     y="0" /></g>
<g
   transform="matrix(2.6666667,0,0,2.6666667,256,224)"
   id="g304"><rect
     width="6"
     height="6"
     id="rect302"
     x="0"
     y="0" /></g>
<g
   transform="matrix(2.6666667,0,0,2.6666667,272,224)"
   id="g308"><rect
     width="6"
     height="6"
     id="rect306"
     x="0"
     y="0" /></g>
<g
   transform="matrix(2.6666667,0,0,2.6666667,304,224)"
   id="g312"><rect
     width="6"
     height="6"
     id="rect310"
     x="0"
     y="0" /></g>
<g
   transform="matrix(2.6666667,0,0,2.6666667,160,240)"
   id="g316"><rect
     width="6"
     height="6"
     id="rect314"
     x="0"
     y="0" /></g>
<g
   transform="matrix(2.6666667,0,0,2.6666667,192,240)"
   id="g320"><rect
     width="6"
     height="6"
     id="rect318"
     x="0"
     y="0" /></g>
<g
   transform="matrix(2.6666667,0,0,2.6666667,224,240)"
   id="g324"><rect
     width="6"
     height="6"
     id="rect322"
     x="0"
     y="0" /></g>
<g
   transform="matrix(2.6666667,0,0,2.6666667,240,240)"
   id="g328"><rect
     width="6"
     height="6"
     id="rect326"
     x="0"
     y="0" /></g>
<g
   transform="matrix(2.6666667,0,0,2.6666667,256,240)"
   id="g332"><rect
     width="6"
     height="6"
     id="rect330"
     x="0"
     y="0" /></g>
<g
   transform="matrix(2.6666667,0,0,2.6666667,272,240)"
   id="g336"><rect
     width="6"
     height="6"
     id="rect334"
     x="0"
     y="0" /></g>
<g
   transform="matrix(2.6666667,0,0,2.6666667,288,240)"
   id="g340"><rect
     width="6"
     height="6"
     id="rect338"
     x="0"
     y="0" /></g>
<g
   transform="matrix(2.6666667,0,0,2.6666667,320,240)"
   id="g344"><rect
     width="6"
     height="6"
     id="rect342"
     x="0"
     y="0" /></g>
<g
   transform="matrix(2.6666667,0,0,2.6666667,192,256)"
   id="g348"><rect
     width="6"
     height="6"
     id="rect346"
     x="0"
     y="0" /></g>
<g
   transform="matrix(2.6666667,0,0,2.6666667,208,256)"
   id="g352"><rect
     width="6"
     height="6"
     id="rect350"
     x="0"
     y="0" /></g>
<g
   transform="matrix(2.6666667,0,0,2.6666667,240,256)"
   id="g356"><rect
     width="6"
     height="6"
     id="rect354"
     x="0"
     y="0" /></g>
<g
   transform="matrix(2.6666667,0,0,2.6666667,256,256)"
   id="g360"><rect
     width="6"
     height="6"
     id="rect358"
     x="0"
     y="0" /></g>
<g
   transform="matrix(2.6666667,0,0,2.6666667,304,256)"
   id="g364"><rect
     width="6"
     height="6"
     id="rect362"
     x="0"
     y="0" /></g>
<g
   transform="matrix(2.6666667,0,0,2.6666667,336,256)"
   id="g368"><rect
     width="6"
     height="6"
     id="rect366"
     x="0"
     y="0" /></g>
<g
   transform="matrix(2.6666667,0,0,2.6666667,160,272)"
   id="g372"><rect
     width="6"
     height="6"
     id="rect370"
     x="0"
     y="0" /></g>
<g
   transform="matrix(2.6666667,0,0,2.6666667,176,272)"
   id="g376"><rect
     width="6"
     height="6"
     id="rect374"
     x="0"
     y="0" /></g>
<g
   transform="matrix(2.6666667,0,0,2.6666667,192,272)"
   id="g380"><rect
     width="6"
     height="6"
     id="rect378"
     x="0"
     y="0" /></g>
<g
   transform="matrix(2.6666667,0,0,2.6666667,304,272)"
   id="g384"><rect
     width="6"
     height="6"
     id="rect382"
     x="0"
     y="0" /></g>
<g
   transform="matrix(2.6666667,0,0,2.6666667,320,272)"
   id="g388"><rect
     width="6"
     height="6"
     id="rect386"
     x="0"
     y="0" /></g>
<g
   transform="matrix(2.6666667,0,0,2.6666667,336,272)"
   id="g392"><rect
     width="6"
     height="6"
     id="rect390"
     x="0"
     y="0" /></g>
<g
   transform="matrix(2.6666667,0,0,2.6666667,160,288)"
   id="g396"><rect
     width="6"
     height="6"
     id="rect394"
     x="0"
     y="0" /></g>
<g
   transform="matrix(2.6666667,0,0,2.6666667,192,288)"
   id="g400"><rect
     width="6"
     height="6"
     id="rect398"
     x="0"
     y="0" /></g>
<g
   transform="matrix(2.6666667,0,0,2.6666667,208,288)"
   id="g404"><rect
     width="6"
     height="6"
     id="rect402"
     x="0"
     y="0" /></g>
<g
   transform="matrix(2.6666667,0,0,2.6666667,288,288)"
   id="g408"><rect
     width="6"
     height="6"
     id="rect406"
     x="0"
     y="0" /></g>
<g
   transform="matrix(2.6666667,0,0,2.6666667,304,288)"
   id="g412"><rect
     width="6"
     height="6"
     id="rect410"
     x="0"
     y="0" /></g>
<g
   transform="matrix(2.6666667,0,0,2.6666667,352,288)"
   id="g416"><rect
     width="6"
     height="6"
     id="rect414"
     x="0"
     y="0" /></g>
<g
   transform="matrix(2.6666667,0,0,2.6666667,160,304)"
   id="g420"><rect
     width="6"
     height="6"
     id="rect418"
     x="0"
     y="0" /></g>
<g
   transform="matrix(2.6666667,0,0,2.6666667,192,304)"
   id="g424"><rect
     width="6"
     height="6"
     id="rect422"
     x="0"
     y="0" /></g>
<g
   transform="matrix(2.6666667,0,0,2.6666667,208,304)"
   id="g428"><rect
     width="6"
     height="6"
     id="rect426"
     x="0"
     y="0" /></g>
<g
   transform="matrix(2.6666667,0,0,2.6666667,224,304)"
   id="g432"><rect
     width="6"
     height="6"
     id="rect430"
     x="0"
     y="0" /></g>
<g
   transform="matrix(2.6666667,0,0,2.6666667,240,304)"
   id="g436"><rect
     width="6"
     height="6"
     id="rect434"
     x="0"
     y="0" /></g>
<g
   transform="matrix(2.6666667,0,0,2.6666667,256,304)"
   id="g440"><rect
     width="6"
     height="6"
     id="rect438"
     x="0"
     y="0" /></g>
<g
   transform="matrix(2.6666667,0,0,2.6666667,272,304)"
   id="g444"><rect
     width="6"
     height="6"
     id="rect442"
     x="0"
     y="0" /></g>
<g
   transform="matrix(2.6666667,0,0,2.6666667,288,304)"
   id="g448"><rect
     width="6"
     height="6"
     id="rect446"
     x="0"
     y="0" /></g>
<g
   transform="matrix(2.6666667,0,0,2.6666667,304,304)"
   id="g452"><rect
     width="6"
     height="6"
     id="rect450"
     x="0"
     y="0" /></g>
<g
   transform="matrix(2.6666667,0,0,2.6666667,320,304)"
   id="g456"><rect
     width="6"
     height="6"
     id="rect454"
     x="0"
     y="0" /></g>
<g
   transform="matrix(2.6666667,0,0,2.6666667,160,320)"
   id="g460"><rect
     width="6"
     height="6"
     id="rect458"
     x="0"
     y="0" /></g>
<g
   transform="matrix(2.6666667,0,0,2.6666667,176,320)"
   id="g464"><rect
     width="6"
     height="6"
     id="rect462"
     x="0"
     y="0" /></g>
<g
   transform="matrix(2.6666667,0,0,2.6666667,224,320)"
   id="g468"><rect
     width="6"
     height="6"
     id="rect466"
     x="0"
     y="0" /></g>
<g
   transform="matrix(2.6666667,0,0,2.6666667,256,320)"
   id="g472"><rect
     width="6"
     height="6"
     id="rect470"
     x="0"
     y="0" /></g>
<g
   transform="matrix(2.6666667,0,0,2.6666667,320,320)"
   id="g476"><rect
     width="6"
     height="6"
     id="rect474"
     x="0"
     y="0" /></g>
<g
   transform="matrix(2.6666667,0,0,2.6666667,208,336)"
   id="g480"><rect
     width="6"
     height="6"
     id="rect478"
     x="0"
     y="0" /></g>
<g
   transform="matrix(2.6666667,0,0,2.6666667,224,336)"
   id="g484"><rect
     width="6"
     height="6"
     id="rect482"
     x="0"
     y="0" /></g>
<g
   transform="matrix(2.6666667,0,0,2.6666667,240,336)"
   id="g488"><rect
     width="6"
     height="6"
     id="rect486"
     x="0"
     y="0" /></g>
<g
   transform="matrix(2.6666667,0,0,2.6666667,256,336)"
   id="g492"><rect
     width="6"
     height="6"
     id="rect490"
     x="0"
     y="0" /></g>
<g
   transform="matrix(2.6666667,0,0,2.6666667,288,336)"
   id="g496"><rect
     width="6"
     height="6"
     id="rect494"
     x="0"
     y="0" /></g>
<g
   transform="matrix(2.6666667,0,0,2.6666667,304,336)"
   id="g500"><rect
     width="6"
     height="6"
     id="rect498"
     x="0"
     y="0" /></g>
<g
   transform="matrix(2.6666667,0,0,2.6666667,320,336)"
   id="g504"><rect
     width="6"
     height="6"
     id="rect502"
     x="0"
     y="0" /></g>
<g
   transform="matrix(2.6666667,0,0,2.6666667,160,352)"
   id="g508"><rect
     width="6"
     height="6"
     id="rect506"
     x="0"
     y="0" /></g>
<g
   transform="matrix(2.6666667,0,0,2.6666667,192,352)"
   id="g512"><rect
     width="6"
     height="6"
     id="rect510"
     x="0"
     y="0" /></g>
<g
   transform="matrix(2.6666667,0,0,2.6666667,224,352)"
   id="g516"><rect
     width="6"
     height="6"
     id="rect514"
     x="0"
     y="0" /></g>
<g
   transform="matrix(2.6666667,0,0,2.6666667,288,352)"
   id="g520"><rect
     width="6"
     height="6"
     id="rect518"
     x="0"
     y="0" /></g>
<g
   transform="matrix(2.6666667,0,0,2.6666667,336,352)"
   id="g524"><rect
     width="6"
     height="6"
     id="rect522"
     x="0"
     y="0" /></g>
<g
   transform="translate(32,32)"
   id="g530"><g
     transform="scale(8)"
     id="g528"><path
       d="M 0,0 V 14 H 14 V 0 Z M 12,12 H 2 V 2 h 10 z"
       id="path526" /></g></g>
<g
   transform="translate(256,32)"
   id="g536"><g
     transform="scale(8)"
     id="g534"><path
       d="M 0,0 V 14 H 14 V 0 Z M 12,12 H 2 V 2 h 10 z"
       id="path532" /></g></g>
<g
   transform="translate(32,256)"
   id="g542"><g
     transform="scale(8)"
     id="g540"><path
       d="M 0,0 V 14 H 14 V 0 Z M 12,12 H 2 V 2 h 10 z"
       id="path538" /></g></g>
<g
   transform="translate(64,64)"
   id="g548"><g
     transform="scale(8)"
     id="g546"><rect
       width="6"
       height="6"
       id="rect544"
       x="0"
       y="0" /></g></g>
<g
   transform="translate(288,64)"
   id="g554"><g
     transform="scale(8)"
     id="g552"><rect
       width="6"
       height="6"
       id="rect550"
       x="0"
       y="0" /></g></g>
<g
   transform="translate(64,288)"
   id="g560"><g
     transform="scale(8)"
     id="g558"><rect
       width="6"
       height="6"
       id="rect556"
       x="0"
       y="0" /></g></g>
</g></mask></defs>

<rect
   x="0"
   y="0"
   width="400"
   height="400"
   mask="url(#qrmask)"
   fill="#000000"
   id="rect569"
   inkscape:export-xdpi="150"
   inkscape:export-ydpi="150"
   transform="matrix(0.40295951,0,0,0.40295951,56.800691,48.966043)" />
</svg>
